<?xml version="1.0" encoding="UTF-8"?>
<svg id="Calque_1" data-name="Calque 1" xmlns="http://www.w3.org/2000/svg" viewBox="0 0 328.19 334.44">
  <defs>
    <style>
      .cls-1 {
        fill: #faf5e4;
      }

      .cls-2 {
        fill: #521a09;
      }
    </style>
  </defs>
  <path class="cls-1" d="m151.54,333.44c-31.05,0-63.07-8.97-90.15-25.26-28.44-17.11-48.55-40.97-56.6-67.19-8.59-27.96-1.71-51.17,12-97.42,12-40.47,24.4-82.31,63.65-112.5C106.38,11.12,131.94,1,156.39,1c5.82,0,11.62.59,17.23,1.76,16.29,3.39,33.82,13.06,66.46,49.19,60.47,66.94,90.83,100.55,86.75,144.24-6.04,64.7-77.15,105.61-107.44,120.19-11.42,5.5-25.62,12.34-45.72,15.41-7.12,1.09-14.57,1.64-22.14,1.64Z"/>
  <path class="cls-2" d="m156.39,2c5.75,0,11.48.59,17.02,1.74,16.09,3.35,33.46,12.95,65.92,48.88,60.28,66.73,90.53,100.22,86.49,143.47-2.79,29.86-19.82,58.03-50.63,83.74-16.08,13.42-35.01,25.41-56.25,35.64-11.36,5.47-25.49,12.28-45.43,15.32-7.07,1.08-14.47,1.63-21.98,1.63-30.88,0-62.71-8.92-89.64-25.11-28.23-16.98-48.18-40.64-56.16-66.63-8.5-27.67-1.65-50.79,12.01-96.84,11.95-40.31,24.31-82,63.3-111.98,4.22-3.25,14.12-10.86,27.34-17.49,16.36-8.21,32.51-12.38,48.01-12.38h0M156.39,0c-37.18,0-67.71,23.47-76.56,30.28C40.32,60.66,27.77,102.98,15.82,143.28,2.14,189.45-4.86,213.03,3.82,241.28c17.35,56.47,85.53,93.15,147.71,93.15,7.55,0,15.01-.54,22.29-1.65,19.83-3.03,33.82-9.63,46-15.5,13.85-6.67,101.25-48.76,108-121,4.12-44.13-26.25-77.75-87-145C205.68,12.38,188.27,4.79,173.82,1.78,167.89.55,162.06,0,156.39,0h0Z"/>
</svg>