<?xml version="1.0" encoding="UTF-8"?>
<svg id="Calque_1" data-name="Calque 1" xmlns="http://www.w3.org/2000/svg" viewBox="0 0 245.47 248.91">
  <defs>
    <style>
      .cls-1 {
        fill: #004445;
      }
    </style>
  </defs>
  <path class="cls-1" d="m120.06,0c37.83.73,66.11,18.67,88.53,47.06,22.81,28.87,35.8,61.94,36.82,98.7,1.31,47.21-20.86,81.16-74.04,98.41-14.21,4.61-28.82,6.19-43.72,3.26-17.65-3.47-27.98-13.2-29.46-30.33-3.95-45.84-26.92-78.7-66.68-100.74-6.66-3.69-13.04-7.97-19.17-12.49C-.03,94.75-3.03,83.01,3.03,68.68c6.02-14.21,16.01-25.32,27.93-34.79C57.18,13.08,86.64.77,120.06,0Z"/>
</svg>