<?xml version="1.0" encoding="UTF-8"?>
<svg id="Calque_1" data-name="Calque 1" xmlns="http://www.w3.org/2000/svg" viewBox="0 0 204.17 258.16">
  <defs>
    <style>
      .cls-1 {
        fill: #f9b406;
      }
    </style>
  </defs>
  <path class="cls-1" d="m.03,104.39C2.19,69.99,21.61,41.97,55.53,19.55,76.44,5.72,100.67-1.88,128.99.4c21.71,1.75,41.67,6.82,55.3,20.95,10.82,11.22,8.67,23.39,3.38,35.47-7.1,16.2-16.7,31.72-21.87,48.46-10.18,32.97-3.61,64.69,12.65,95.63,6.65,12.65,14.48,24.94,21.66,37.44,1.4,2.44,2.54,5.01,3.36,7.6,2.8,8.86-2.88,13.24-15.05,12.01-15.09-1.53-29.07-5.66-42.38-10.92-50-19.79-92.38-46.21-122.4-82.87C8.73,145.95-.56,126.29.03,104.39Z"/>
</svg>