<?xml version="1.0" encoding="UTF-8"?>
<svg id="Calque_1" data-name="Calque 1" xmlns="http://www.w3.org/2000/svg" viewBox="0 0 748.5 390.28">
  <defs>
    <style>
      .cls-1 {
        fill: #fab60f;
      }

      .cls-2 {
        fill: #f9b508;
      }

      .cls-3 {
        fill: #004446;
      }

      .cls-4 {
        fill: #e3d6c7;
      }

      .cls-5 {
        fill: #521e12;
      }

      .cls-6 {
        fill: #521d10;
      }

      .cls-7 {
        fill: #f4e8d8;
      }

      .cls-7, .cls-8 {
        font-size: 10.33px;
      }

      .cls-7, .cls-8, .cls-9 {
        font-family: Poppins-ExtraLight, Poppins;
        font-weight: 200;
      }

      .cls-8 {
        fill: #faf5e4;
      }

      .cls-9 {
        fill: #faf5e5;
        font-size: 11px;
      }

      .cls-10 {
        fill: #1d1d1b;
        font-family: MyriadPro-Regular, 'Myriad Pro';
        font-size: 12px;
      }
    </style>
  </defs>
  <g>
    <path class="cls-4" d="m219.89,388.82c-20.68-.16-38.72-7.36-53.28-21.83-11.22-11.15-18.03-24.85-20.19-40.92-2.06-15.24-.6-29.82,5.61-43.81,4.39-9.9,11.53-17.81,19.73-24.76,8.49-7.19,18.08-12.61,28.44-16.54,7.74-2.93,15.87-4.59,24.07-5.67,12.55-1.65,24.95-.64,36.82,3.77,19.75,7.34,32.37,21.7,37.86,41.76,2.34,8.54.03,17.89-11.01,21.97-7.51,2.78-14.94,5.84-20.72,11.75-7.03,7.18-9.87,16.1-11.45,25.8-1.42,8.72-.12,17.49-1.92,26.27-2.99,14.55-15.83,21.54-28.42,22.19-1.84.1-3.69.01-5.54.01Z"/>
    <path class="cls-3" d="m216.38,158.17c-.38,19.3-5.42,39.06-18.41,56.25-12.24,16.2-29.16,24.26-48.81,27.09-15.91,2.29-31.42.88-45.54-7.48-16.67-9.88-23.7-25.22-22.37-44.04,3.09-43.71,38.41-83.45,81.2-92.05,6.51-1.31,13.06-1.64,19.65-.46,11.68,2.09,19.69,9.03,25.24,19.12,6.79,12.34,8.96,25.77,9.04,41.58Z"/>
    <path class="cls-3" d="m347.47,18.27c22.81.66,48.61,3.83,73.64,11.93,5.03,1.63,9.82,3.84,14.15,6.93,7.33,5.23,7.96,11.62,1.53,17.79-6.91,6.64-15.41,11.05-23.46,16.04-25.16,15.6-47.86,34.1-67.6,56.2-2.62,2.94-5.63,5.57-8.62,8.14-7.98,6.87-16.76,6.78-25.84,2.55-8.68-4.05-15.57-10.34-21.34-17.84-11.5-14.95-19.33-31.47-19.9-50.65-.67-22.6,9.53-37.15,30.86-44.79,13.96-5,28.49-6.25,46.58-6.3Z"/>
    <path class="cls-2" d="m586.98,112.45c.2,14.69-1.97,28.38-8.06,41.26-7.21,15.24-18.35,25.67-35.9,26.38-18.66.76-35.53-4.28-48.16-19.05-4.63-5.42-5.02-11.65-1.42-18.03,2.91-5.15,7.17-9.07,11.32-13.11,4.25-4.14,8.53-8.24,12.69-12.48,2.42-2.46,4.42-5.33,5.14-8.76,1.28-6.16-1.58-11.01-7.84-13.89-6.87-3.17-14.33-4.42-21.49-6.66-4.93-1.54-9.84-3.21-14.04-6.24-8.3-6.01-10.62-14.48-8.82-24.16,3.68-19.73,14.05-34.64,33.01-42.2,12.45-4.96,24.65-1.96,35.41,5.22,25.51,17,40.97,40.81,46.46,71.04,1.28,7.03,1.8,14.1,1.7,20.68Z"/>
    <path class="cls-1" d="m73.65,381.03c-23.07.1-39.99-11.7-52.2-31.14-9.92-15.79-14.58-33.18-14.26-51.84.6-35.22,23.91-52.35,53.57-54.92,8.2-.71,16.32-.04,23.68,4.46,3.92,2.4,5.8,5.57,6.19,6.15,3.73,5.6,3.34,10.82,3.9,15.7,1.36,11.92,8.46,22.38,14.7,27.93,8.25,7.34,11.89,3.31,19.11,11.03,6.01,6.42,9.4,15.52,9.56,23.52.08,3.82-.57,7.84-.74,8.88-.86,5.19-2.01,9.51-3.08,11.23-5.32,8.56-13.17,14.31-21.85,18.95-11.79,6.3-24.34,9.95-38.57,10.05Z"/>
    <path class="cls-3" d="m679.45,266.16c-9.65.31-18.91-1.6-27.73-5.36-17.7-7.54-26.96-21.56-29.09-40.19-1.94-16.95-.09-33.71,6.13-49.7,6.56-16.87,18.01-28.43,36.63-31.09,12.57-1.79,24.52,1.08,35.44,7.17,24.91,13.9,38.93,35.27,40.16,63.82.99,22.9-13.3,42.48-34.89,50.53-8.6,3.21-17.43,5.1-26.66,4.82Z"/>
    <path class="cls-3" d="m393.57,220.87c20.23.39,35.35,9.99,47.35,25.17,12.2,15.44,19.15,33.12,19.69,52.79.7,25.25-11.16,43.41-39.6,52.63-7.6,2.46-15.41,3.31-23.38,1.75-9.44-1.85-14.97-7.06-15.75-16.22-2.11-24.52-14.4-42.09-35.66-53.87-3.56-1.97-6.97-4.26-10.25-6.68-6.62-4.88-8.23-11.16-4.99-18.82,3.22-7.6,8.56-13.54,14.94-18.6,14.02-11.13,29.78-17.72,47.65-18.13Z"/>
    <path class="cls-2" d="m543.78,385.93c-21.99-.94-39.97-10.23-54.44-26.56-8.92-10.06-13.88-21.75-12.54-35.45,1.02-10.5,4.18-20.17,13.15-26.8,7.12-5.26,14.91-4.26,22.65-1.74,10.38,3.38,20.34,7.97,31.05,10.42,21.11,4.82,41.35,1.54,61.05-6.42,8.05-3.25,15.88-7.08,23.83-10.59,1.56-.69,3.19-1.24,4.84-1.65,5.65-1.38,8.47,1.35,7.74,7.23-.91,7.3-3.49,14.07-6.8,20.52-12.43,24.23-29.14,44.8-52.44,59.43-11.57,7.26-24.1,11.82-38.09,11.6Z"/>
    <path class="cls-6" d="m738.13,100.53c.11,7.44-.77,14.74-3.28,21.78-4.42,12.39-12.84,17.31-25.87,15.2-7.88-1.28-15.34-3.9-22.48-7.34-18.69-9-36.54-19.46-53.33-31.66-6.53-4.75-12.58-10.07-17.26-16.73-8.39-11.92-8.33-22.27,1.52-33.05,16.53-18.09,37.77-25.46,61.89-24.4,19.67.87,34.33,10.75,44.96,27,3.77,5.77,6.67,11.99,8.82,18.52,3.28,9.95,5.19,20.15,5.04,30.68Z"/>
    <path class="cls-6" d="m30.89,131.72c-3.72-.05-7.39-.26-11.04-.93-15.08-2.75-21.72-12.03-19.39-27.13,1.4-9.1,4.61-17.57,9.05-25.56C25.91,48.55,49.35,27.34,82.1,17.28c3.78-1.16,7.64-1.98,11.61-2.24,17.27-1.12,27.6,7.46,28.3,24.83,1.18,29.19-9.56,53.36-32.86,71.27-17.08,13.13-36.7,19.81-58.26,20.57Z"/>
    <path class="cls-5" d="m547.15,190.83c13.25.03,23.72,4.6,33.1,12.1,10.53,8.41,18.78,18.64,23.9,31.13,3.7,9.01,6.63,18.21,3.38,28.2-2.34,7.2-7.5,11.77-13.98,14.5-8.87,3.74-18.41,5.36-28.03,5.09-22.09-.63-42.59-6.42-59.53-21.22-10.02-8.75-14.55-21.61-8.23-35.95,7.76-17.62,21.97-27.14,39.52-32.62,3.44-1.07,7.19-1.6,9.87-1.23Z"/>
    <path class="cls-4" d="m398.56,162.25c.5-17.47,3.97-33.96,14.08-48.4,7.96-11.38,18.9-18.52,32.54-21.43,1.57-.34,3.14-.46,4.71-.16,3.5.66,4.85,2.57,3.75,5.95-.93,2.86-2.34,5.58-3.58,8.34-6.21,13.77-4.62,26.42,5.51,37.79,4.12,4.63,8.53,9.01,12.49,13.77,7.07,8.49,7.6,16.42,1.12,25.26-10.19,13.88-24.02,21.89-41.28,23.45-10.21.92-17.5-3.82-22.31-12.61-5.47-10-6.75-20.96-7.02-31.95Z"/>
    <path class="cls-2" d="m251.18,195.23c.01-22.92,15.44-40.49,39.5-44.64,12.48-2.16,24.73-1.52,35.93,5.2,9.9,5.93,15.31,15.01,16.94,26.28.89,6.13-2.27,11.45-7.94,12.27-15.91,2.29-22.4,12.47-24.4,27.14-1.1,8.09-4.59,14.6-13.47,16.49-3.8.81-7.57.39-11.35-.33-20.15-3.86-35.22-21.98-35.21-42.4Z"/>
    <path class="cls-4" d="m748.5,309.86c-.38,27.29-18.21,50.55-46.02,59.86-9.84,3.3-19.9,5.17-30.33,3.3-11.21-2-16.14-8.74-14.36-20.01,2.44-15.45,10.74-27.87,20.9-39.19,11.46-12.78,25.47-21.67,42.15-25.93,17.94-4.58,27.91,3.48,27.65,21.97Z"/>
    <path class="cls-6" d="m359.68,346.55c.04,18.7-11.92,36.11-28.68,41.96-12.49,4.36-25.14.6-32.37-10.49-10.01-15.36-11.43-31.87-3.85-48.59,6.76-14.91,22.39-22.2,38.79-18.98,14.63,2.87,25.12,15.62,26.09,31.74.09,1.44.01,2.9.01,4.35Z"/>
    <path class="cls-4" d="m248.86,81.07c.34,6.66-.98,13.47-3.34,20.11-.89,2.52-2.19,4.81-3.83,6.88-3.27,4.12-6.49,4.1-9.62-.09-3.24-4.32-5.78-9.12-9.25-13.3-8.74-10.51-19.92-16.57-33.36-18.61-.91-.14-1.8-.38-2.71-.5-12.92-1.78-17.65-9.23-17.1-22.18.42-9.67,3.9-18.29,10.75-25.26,6.27-6.39,14.08-7.84,22.62-6.15,21.46,4.23,47.4,29.47,45.86,59.08Z"/>
  </g>
  <text class="cls-10" transform="translate(122.29 10.04)"><tspan x="0" y="0"> </tspan></text>
  <g>
    <text class="cls-8" transform="translate(39.29 298.7)"><tspan x="0" y="0">FRANCAIS</tspan><tspan x="-25.15" y="15">LANGUE MATERNELLE</tspan><tspan x="3.19" y="30">ANGLAIS</tspan><tspan x="-1.1" y="45">NIVEAU B2</tspan></text>
    <text class="cls-7" transform="translate(314.53 46.56)"><tspan x="0" y="0">HTLM5</tspan><tspan x="2.76" y="15">CSS3</tspan><tspan x="6.38" y="30">PHP</tspan><tspan x="-2.58" y="45">JQUERY</tspan><tspan x="-.62" y="60">MYSQL</tspan></text>
    <text class="cls-7" transform="translate(124.05 149.47)"><tspan x="0" y="0">MONGO DB</tspan><tspan x="6.07" y="15">REACT JS</tspan><tspan x="-.38" y="30">JAVASCRIPT</tspan><tspan x="7.58" y="45">NODE JS</tspan></text>
    <text class="cls-7" transform="translate(657.11 186.36)"><tspan x="0" y="0">ADOBE XD</tspan><tspan x="-15.35" y="15" xml:space="preserve">ADOBE  ANIMATE</tspan><tspan x="-23.28" y="30">ADOBE ILLUSTRATOR</tspan><tspan x="-23.73" y="45">ADOBE PHOTOSHOP</tspan></text>
    <text class="cls-7" transform="translate(365.34 256.76)"><tspan x="0" y="0">VISUAL STUDIO</tspan><tspan x="19.25" y="15">CODE </tspan><tspan x="25.77" y="30">GIT </tspan><tspan x="14.56" y="45">GIT HUB </tspan><tspan x="24.43" y="60">NPM</tspan></text>
    <text class="cls-7" transform="translate(24.97 70.22)"><tspan x="0" y="0">ORGANISATION</tspan><tspan x="13.88" y="15">PATIENCE</tspan><tspan x="8.7" y="30">DIPLOMATIE</tspan></text>
    <text class="cls-7" transform="translate(522.63 234.55)"><tspan x="0" y="0">CREATIVITE</tspan><tspan x="-1.99" y="15">PONTUALITE</tspan></text>
    <text class="cls-7" transform="translate(634.96 68.33)"><tspan x="0" y="0">COMMUNICATION</tspan><tspan x="-.94" y="15">TRAVAIL EN EQUIPE</tspan></text>
  </g>
  <text class="cls-9" transform="translate(511.88 318.67)"><tspan x="0" y="0">NEERLANDAIS</tspan><tspan x="6.87" y="15">NIVEAU A2</tspan><tspan x="6.25" y="30">ESPAGNOL</tspan><tspan x="-11.97" y="45">NOTIONS DE BASE</tspan></text>
</svg>